# xmcd
# Track frame offsets:
# 150
# 11527
# 28050
# 40301
# 48235
# 64410
# 76232
# 87228
# 99182
# 110407
# 119885
# 129187
# 140604
# 154010
# 165921
# 177924
# 188270
# 198208
# 211913
# 221559
#
# Disc length: 3127 seconds
# Revision: 0
# Processed by: cddbd v1.5.2PL0 Copyright (c) Steve Scherf et al.
# Submitted via: VisiTrax 2.11.1.266 - For more info visit www.synapsa.com
#
DISCID=050c3514
DTITLE=Various Artist - 20 Country Hits
DYEAR=1900
DGENRE=Country
TTITLE0=Conway Twitty - Hello Darlin'
TTITLE1=Bobby Bare - Me and Bobby McGee
TTITLE2=Merle Haggard - Workin' Man Blues
TTITLE3=Roger Miller - Dang Me
TTITLE4=Paul Pace - Face in the Crowd
TTITLE5=Dave Dudley - Six Days on the Road
TTITLE6=Ferlin Husky - On the Wings of a Dove
TTITLE7=Billy Grammer - Papa and Mama
TTITLE8=Hank Locklin - Let Me Be the One
TTITLE9=Boots Randolph - Yakety Sax
TTITLE10=Dave Dudley - Comin' Down
TTITLE11=Bobby Bare` - How I Got to Memphis
TTITLE12=Gearge Kent - Mama Bake a Pie, Daddy Kill a Chidken
TTITLE13=Conway Twitty - Linda on My Mind
TTITLE14=Ferlin Husky - Money Greases the Wheels
TTITLE15=Roger Miller - Engine, Engine #9
TTITLE16=Merle Haggard - Mama Tried
TTITLE17=Kendalls - Heartaches By the Number
TTITLE18=Gearge Kent - Runnin' With the Wind
TTITLE19=Merle Haggard - The Fightin' Side of Me
EXTD=
EXTT0=
EXTT1=
EXTT2=
EXTT3=
EXTT4=
EXTT5=
EXTT6=
EXTT7=
EXTT8=
EXTT9=
EXTT10=
EXTT11=
EXTT12=
EXTT13=
EXTT14=
EXTT15=
EXTT16=
EXTT17=
EXTT18=
EXTT19=
PLAYORDER=
